# xmcd
#
# Track frame offsets:
# 183
# 15163
# 25158
# 45233
# 57983
# 75220
# 92763
# 104633
# 122558
# 138370
# 150145
# 162423
#
# Disc length: 2514 seconds
#
#
# Revision: 0
# Processed by: cddbd v1.5PL3 Copyright (c) Steve Scherf et al.
# Submitted via: FreeRIP 2.51 
#
DISCID=7c09d00c
DTITLE=Glen Campbell - Glen Campbell Live
DYEAR=1900
DGENRE=Country
TTITLE0=Rhinstone Cowboy
TTITLE1=Gentle On My Mind
TTITLE2=Medley
TTITLE3=By The Time I Get To Phoenix
TTITLE4=Southern Nights
TTITLE5=Please Come To Boston
TTITLE6=It´s Only Make Belive
TTITLE7=Crying
TTITLE8=Rollin
TTITLE9=Heartache No.2
TTITLE10=Try A Little Kindness
TTITLE11=Mull of Kintyre
EXTD=
EXTT0=
EXTT1=
EXTT2=
EXTT3=
EXTT4=
EXTT5=
EXTT6=
EXTT7=
EXTT8=
EXTT9=
EXTT10=
EXTT11=
PLAYORDER=
